<svg xmlns="http://www.w3.org/2000/svg" viewBox="0 0 631.26 655.6"><defs><style>.cls-1{fill:#26a9e0;}</style></defs><g id="Layer_2" data-name="Layer 2"><g id="Layer_1-2" data-name="Layer 1"><path class="cls-1" d="M625.7,440.81c-1.49-3.19-3-6.35-4.57-9.48A534.27,534.27,0,0,0,499,269.79a530.64,530.64,0,0,0,69.08-142.35c.14-.43.25-.85.39-1.27l5-16.28L559.58,96c-1-1-2.08-2.08-3.15-3.07A325.92,325.92,0,0,0,448.14,22.73c-8-3.18-16.13-6-24.37-8.54l-.11,0a330.39,330.39,0,0,0-147.89-10c-8.68,1.35-17.23,3.1-25.66,5.16h0A328.78,328.78,0,0,0,60.19,138.66q-6.93,9.83-13.2,20.17A325,325,0,0,0,1.27,299.16Q.13,311.59.06,324.32v0C0,325.5,0,326.63,0,327.81a326.11,326.11,0,0,0,32.16,141.6l.08.14q6.18,12.82,13.43,25C102.81,590.89,207.88,655.6,327.79,655.6c3.61,0,7.19-.06,10.77-.2,9.42-.28,18.81-1,28.09-2.14h.06a328.53,328.53,0,0,0,142.16-52.44l.06,0q9.44-6.21,18.36-13.08a327.22,327.22,0,0,0,93.93-113.65c1.57-3.16,3.1-6.31,4.56-9.53l5.48-11.88ZM509.12,125.91A471.68,471.68,0,0,1,455,234.17q-11.18-8.13-22.82-15.68A533.76,533.76,0,0,0,382.73,190,394.56,394.56,0,0,0,435.45,78.55,268.71,268.71,0,0,1,509.12,125.91ZM381.6,61.72a337.25,337.25,0,0,1-51.53,105.06,530.25,530.25,0,0,0-88.82-25,250.59,250.59,0,0,0,52.32-83.26,274.56,274.56,0,0,1,88,3.16ZM219.81,78.84A195.89,195.89,0,0,1,164.16,133h0c-7.36-.34-14.72-.48-22.14-.48-.85,0-1.66,0-2.51,0A271.4,271.4,0,0,1,219.81,78.84ZM100.22,475.47A195.71,195.71,0,0,1,325.39,599.16C231.15,598.37,148.22,549.26,100.22,475.47Zm282.71,118A251.9,251.9,0,0,0,74,423.91a268.89,268.89,0,0,1-17.24-83A336.34,336.34,0,0,1,462.16,563.42,271,271,0,0,1,382.93,593.49Zm127-64.59A392.8,392.8,0,0,0,60.28,282.15a269,269,0,0,1,32.94-90.69A469.46,469.46,0,0,1,142,189c5,0,10.07.09,15.09.26,7.14.22,14.25.59,21.3,1.18a474.27,474.27,0,0,1,148.14,36.08l0,0s0,0,.06,0c6.91,2.88,13.74,6,20.51,9.17a482.41,482.41,0,0,1,78.24,47.08h0l.31.22,10.21,7.76.59.48A477.29,477.29,0,0,1,568.78,452.74,271.46,271.46,0,0,1,509.89,528.9Z"/></g></g></svg>