<?xml version="1.0" encoding="UTF-8"?> <svg xmlns="http://www.w3.org/2000/svg" xmlns:xlink="http://www.w3.org/1999/xlink" width="415px" height="415px" viewBox="0 0 415 415"> <!-- Generator: Sketch 48.1 (47250) - http://www.bohemiancoding.com/sketch --> <title>Group 2</title> <desc>Created with Sketch.</desc> <defs> <linearGradient x1="56.6773343%" y1="109.065324%" x2="19.8305723%" y2="-10.6381777%" id="linearGradient-1"> <stop stop-color="#F9A1CA" offset="0%"></stop> <stop stop-color="#926EF7" offset="100%"></stop> </linearGradient> <circle id="path-2" cx="207.5" cy="207.5" r="207.5"></circle> </defs> <g id="Landing-page-2" stroke="none" stroke-width="1" fill="none" fill-rule="evenodd" transform="translate(-997.000000, -872.000000)"> <g id="Group-2" transform="translate(997.000000, 872.000000)"> <g id="Rectangle"> <mask id="mask-3" fill="white"> <use xlink:href="#path-2"></use> </mask> <use id="Mask-Copy-3" fill="url(#linearGradient-1)" xlink:href="#path-2"></use> <rect fill="#FFFFFF" opacity="0.200000003" mask="url(#mask-3)" x="108" y="33" width="203" height="257" rx="23"></rect> <rect id="Rectangle-4" fill="#9172D6" opacity="0.533231431" mask="url(#mask-3)" x="126" y="76" width="41" height="7" rx="3.5"></rect> <rect id="Rectangle-4-Copy" fill="#9172D6" opacity="0.533231431" mask="url(#mask-3)" x="126" y="90" width="136" height="7" rx="3.5"></rect> <rect id="Rectangle-4-Copy-2" fill="#9172D6" opacity="0.533231431" mask="url(#mask-3)" x="126" y="104" width="123" height="7" rx="3.5"></rect> </g> <g id="6" transform="translate(134.000000, 44.000000)"> <ellipse id="Oval-3" fill-opacity="0.160920516" fill="#000000" cx="63.5" cy="341.5" rx="63.5" ry="4.5"></ellipse> <path d="M80,190.495112 L79.2425636,235.666197 C79.1194802,237.619188 78.9017172,239.581523 78.5987427,241.543858 C77.1785494,250.80421 74.0257204,260.073908 70.7166701,268.642771 C66.5981097,279.332825 61.3433947,291.139541 52.438783,298.848714 C52.3535714,298.92347 52.2730938,298.988881 52.1878822,299.058964 C48.3060207,302.404278 44.2063962,305.483276 40.0215601,308.43145 C33.3229819,313.155071 26.1794099,318.528132 18.5624401,321.747296 C13.2509173,323.994637 5.66708539,310.533952 7.2008941,309.767707 C8.14145228,309.060368 9.03633751,308.295749 9.88032536,307.478316 C18.4014849,299.731765 43.9649633,274.637237 45.8869582,266.362724 C47.0704526,261.307375 46.2041347,245.552628 45.1058519,231.573327 C44.0833128,218.635932 42.8524786,189 42.8524786,189 L80,190.495112 Z" id="Shape" fill="#FFFFFF" fill-rule="nonzero"></path> <path d="M18.7141185,337.711208 C16.2749137,330.540646 17.9592389,322.907468 17.9592389,322.907468 C17.9592389,322.907468 11.9107658,307.34041 5.10741311,311.804663 C-1.69593959,316.268916 4.35253348,325.88672 7.37677001,334.042656 C10.4010065,342.198591 14.0102748,345.02518 17.2043592,343.678965 C18.6339126,343.035928 19.4737161,339.936395 18.7141185,337.711208 Z" id="Shape" fill="#9151F4" fill-rule="nonzero"></path> <path d="M110.972276,327.449571 C106.649854,327.598635 102.323112,327.340948 98.0476241,326.67982 C98.0476241,326.67982 79.0402245,322.831068 81.1658648,333.448813 C82.7980529,341.627411 94.7500348,338.485867 103.636919,338.024017 C112.523804,337.562166 116.362293,334.906528 115.973225,331.38492 C115.816648,329.826175 113.373111,327.391839 110.972276,327.449571 Z" id="Shape" fill="#9151F4" fill-rule="nonzero"></path> <path d="M46.5430684,144.570567 L42.4938265,157 C42.4938265,157 19.3532642,132.339251 20.0138799,121.980604 C20.8550957,108.796444 54.0522261,81.362068 54.0522261,81.362068 C55.1723997,79.6936765 56.9153779,78.5362102 58.8965778,78.1450604 C60.8777777,77.7539107 62.9343697,78.1612251 64.612573,79.2771309 C66.2935486,80.3889187 67.4597454,82.1188486 67.8538454,84.0852168 C68.2479455,86.0515851 67.8375589,88.092781 66.7132361,89.7584209 C66.7132361,89.7584209 36.9902793,113.621988 35.7926162,125.301409 C35.2032899,130.782624 46.5430684,144.570567 46.5430684,144.570567 Z" id="Shape" fill="#FFE7CD" fill-rule="nonzero"></path> <path d="M82.5749012,267.620941 C83.8918692,257.687448 75,190 75,190 L114,191.500103 L113.252784,236.821956 C112.552269,248.0446 109.273859,259.150048 106.336367,269.917973 C102.282721,284.787741 96.7906838,325.454589 96.0621482,330.714324 C95.3336127,335.974059 80.3472638,330.714324 80.3472638,329.214221 C80.3472638,327.714118 80.5527482,282.893862 82.5749012,267.620941 Z" id="Shape" fill="#FFFFFF" fill-rule="nonzero"></path> <path d="M79.5,114 L71,196.290965 C71,196.290965 77.5591667,197.081954 79.5,196.993027 C81.4408333,196.904099 88,196.290965 88,196.290965 L79.5,114 Z" id="Shape" fill="#1C1C1C" fill-rule="nonzero"></path> <path d="M117.42516,200.890941 C117.42516,200.890941 96.215787,207.196555 85.6111006,205.79738 L79.4948219,139.970866 L73.3785432,205.79738 C62.7738568,207.196555 41.5644841,200.890941 41.5644841,200.890941 C41.5644841,200.890941 31.6843416,198.787514 34.5072395,183.368607 C36.7749674,170.985909 37.725343,156.840251 43.9592425,145.618868 C48.5276322,137.39172 52.2962009,128.665533 54.0981507,119.412323 C55.8530522,110.4063 54.4792419,101.083132 53.6511919,92.0444619 C53.3547876,88.7797205 52.3056106,83.3042827 54.3004584,80.338032 C57.1233563,76.1405073 64.180601,74.0324171 71.9765039,75.431592 L87.0319592,75.431592 C94.8090429,74.0324171 101.880402,76.1311795 104.708005,80.338032 C106.702853,83.3042827 105.648971,88.7750566 105.357271,92.0444619 C104.529221,101.083132 103.160116,110.4063 104.910312,119.412323 C106.712262,128.665533 110.480831,137.387056 115.049221,145.618868 C121.27371,156.840251 122.214676,170.985909 124.491814,183.368607 C127.319417,198.787514 117.42516,200.890941 117.42516,200.890941 Z" id="Shape" fill="#4E4E4E" fill-rule="nonzero"></path> <rect id="Rectangle-path" fill="#1C1C1C" fill-rule="nonzero" transform="translate(71.000000, 110.000000) rotate(-49.760000) translate(-71.000000, -110.000000) " x="26" y="108" width="90" height="4"></rect> <path d="M43.0129135,139.548211 C44.5635469,140.066939 45.7758604,143.990411 45.9497193,145.320242 C46.4196082,149.012644 43.4781035,152.054279 42.0402434,155.190227 C40.0526132,159.519251 41.3448078,163.636067 41.0581755,168.13014 C40.8044355,172.16679 39.5310365,176.264743 36.241814,178.839522 C33.3848894,181.070054 30.2225369,183.993795 26.6184888,184.880349 C21.4497106,186.153591 23.1882996,176.901365 23.6722852,174.383174 C24.9033942,167.998101 25.8854621,161.207475 28.1409289,155.11006 C28.6932729,153.568592 29.3985142,152.086707 30.2460313,150.686722 C31.5147314,148.640103 33.1405471,146.76325 34.418645,144.683621 C35.4524006,143.000112 36.5472418,141.06667 38.069682,139.774565 C39.4840476,138.576774 41.3401089,138.987041 43.0129135,139.548211 Z" id="Shape" fill="#1C1C1C" fill-rule="nonzero"></path> <path d="M29.791807,155 C29.791807,155 17.0375054,168.531506 16.1353356,171.019382 C15.2331658,173.507258 19.050038,177.146172 21.404602,175.650728 C23.7591661,174.155284 30,168.590418 30,168.590418 L29.791807,155 Z" id="Shape" fill="#1C1C1C" fill-rule="nonzero"></path> <path d="M148.99591,17.7127151 C148.779275,19.7055482 148.68775,21.7098577 148.721868,23.7140009 C148.67462,26.2826263 148.650995,28.8794268 148.617921,31.4245731 C148.575398,34.3829534 148.518699,37.3413337 148.414753,40.299714 C148.310806,43.2580943 148.15961,46.2399538 147.909193,49.2218133 C147.715088,51.8453754 147.380726,54.4568209 146.907524,57.0450857 C146.609679,58.9929344 146.038722,60.8897062 145.2113,62.6800958 C145.02508,63.0488585 144.806913,63.4008099 144.55927,63.7319644 C137.443637,73.0532102 105.862698,90.4184331 105.862698,90.4184331 C104.148899,92.4444596 101.459363,93.3796916 98.8484832,92.8574859 C96.2376032,92.3352801 94.1214518,90.4388559 93.3296339,87.9116774 C92.5378159,85.3844988 93.1965166,82.6293005 95.0475023,80.7262157 C95.0475023,80.7262157 127.176524,62.3513869 134.523676,52.7859572 C138.705173,47.3528683 140.694338,23.7046092 142.555931,17.567144 C141.965324,16.5434505 140.259651,14.4021467 139.81079,13.5146326 C139.777716,13.4535866 139.735192,13.3690615 139.687943,13.265753 C138.873878,12.3322957 138.004537,11.4479083 137.084548,10.6172982 C136.517565,10.2651101 132.208496,8.33981496 132.104549,7.87962247 C132.104549,7.87962247 129.997263,4.98228811 133.640127,6.0952026 C134.788267,6.44739074 135.733239,6.71974956 136.527015,6.92636659 C136.527015,6.92636659 136.527015,6.92636659 136.527015,6.92636659 C136.786882,6.76201213 138.861093,5.41430555 138.861093,3.63927736 C138.861093,1.76094066 133.663752,2.70010901 133.663752,2.70010901 C133.663752,2.70010901 127.993924,3.16969319 130.356352,1.29135648 C132.71878,-0.58698022 138.861093,-0.117396044 141.696007,0.821772308 C144.530921,1.76094066 145.003406,5.51761407 145.948378,9.27428747 C146.368135,10.8747098 146.913154,12.4400646 147.578453,13.9560417 C147.861944,14.6181554 148.154886,15.2755732 148.443102,15.9376869 C148.677343,16.3689212 148.855178,16.828137 148.972286,17.3041769 C148.997812,17.4387791 149.005753,17.5760927 148.99591,17.7127151 Z" id="Shape" fill="#FFE7CD" fill-rule="nonzero"></path> <path d="M136.004732,-4 L139,-4 L139,12.4980258 C139,13.3275432 138.328427,14 137.5,14 C136.671573,14 136,13.3275432 136,12.4980258 L136,-4 L136.004732,-4 Z" id="Shape" fill="#141D42" fill-rule="nonzero" transform="translate(137.500000, 5.000000) rotate(-82.520000) translate(-137.500000, -5.000000) "></path> <polygon id="Shape" fill="#5B50CE" fill-rule="nonzero" points="128.627803 6 129 3 126 4.10828025"></polygon> <path d="M139.905477,124.924892 C135.793381,133.357674 111.675987,126.92065 102.266157,127.735819 C90.3815412,128.766493 73.0956834,138.042553 55.2170063,119.771525 C38.9850494,103.158945 39.8178194,53.2462471 40.1095241,44.3121834 C40.0483602,43.6656701 40.0154258,43.0144719 40.0154258,42.353904 C40.0154258,30.5620642 49.8957474,21.0002267 62.0344282,21.0002267 C69.3166279,20.9674073 76.1500306,24.5000398 80.3130231,30.4496271 C85.8789375,35.1063966 90.3674265,60.8170112 102.736648,69.1748349 C115.91041,78.0761045 147.226325,109.867692 139.905477,124.924892 Z" id="Shape" fill="#1C1C1C" fill-rule="nonzero"></path> </g> </g> </g> </svg> 